# xmcd
#
# Track frame offsets:
# 150
# 24419
# 37004
# 51053
# 78623
# 92527
# 110362
# 127204
# 140916
# 161273
#
# Disc length: 2408 seconds
#
# Revision: 1
# Processed by: cddbd v1.5.2PL0 Copyright (c) Steve Scherf et al.
# Submitted via: CedeCatalogueitor 2.6.0.6 http://personales.ya.com/cdcatalogueitor
#
DISCID=8309660a
DTITLE=Stevie Ray Vaughan - Soul To Soul
DYEAR=1985
DGENRE=
TTITLE0=Say What
TTITLE1=Lookin' Out The Window
TTITLE2=Look At Little Sister
TTITLE3=Ain't Gone ' N' Give Up On Love
TTITLE4=Gone Home
TTITLE5=Cange It
TTITLE6=You'll Be Mine
TTITLE7=Empty Arms
TTITLE8=Come On ( Part III )
TTITLE9=Life Without You
EXTD=
EXTT0=
EXTT1=
EXTT2=
EXTT3=
EXTT4=
EXTT5=
EXTT6=
EXTT7=
EXTT8=
EXTT9=
PLAYORDER=
